PathFileType	4	(X/Y/Z)	C:/Users/opensim2020/Desktop/walking_exp_matlab/subject06_walking21_straight_03.trc	
DataRate	CameraRate	NumFrames	NumMarkers	Units	OrigDataRate	OrigDataStartFrame	OrigNumFrames	
100.00	100.00	4	44	mm	100.00	1766	110	
Frame#	Time	LFHD			RFHD			LBHD			RBHD			C7			T10			CLAV			STRN			RBAK			LSHO			LUPA			LELB			LFRM			LWRA			LWRB			LFIN			RSHO			RUPA			RELB			RFRM			RWRA			RWRB			RFIN			LASI			RASI			LPSI			RPSI			LTHI			LKNE			LTIB			LANK			LHEE			LTOE			RTHI			RKNE			RTIB			RANK			RHEE			RTOE			*39			*40			*41			*42			*43			
		X1	Y1	Z1	X2	Y2	Z2	X3	Y3	Z3	X4	Y4	Z4	X5	Y5	Z5	X6	Y6	Z6	X7	Y7	Z7	X8	Y8	Z8	X9	Y9	Z9	X10	Y10	Z10	X11	Y11	Z11	X12	Y12	Z12	X13	Y13	Z13	X14	Y14	Z14	X15	Y15	Z15	X16	Y16	Z16	X17	Y17	Z17	X18	Y18	Z18	X19	Y19	Z19	X20	Y20	Z20	X21	Y21	Z21	X22	Y22	Z22	X23	Y23	Z23	X24	Y24	Z24	X25	Y25	Z25	X26	Y26	Z26	X27	Y27	Z27	X28	Y28	Z28	X29	Y29	Z29	X30	Y30	Z30	X31	Y31	Z31	X32	Y32	Z32	X33	Y33	Z33	X34	Y34	Z34	X35	Y35	Z35	X36	Y36	Z36	X37	Y37	Z37	X38	Y38	Z38	X39	Y39	Z39	X40	Y40	Z40	X41	Y41	Z41	X42	Y42	Z42	X43	Y43	Z43	X44	Y44	Z44	

1	0.000	-1076.34692	-802.71454	1659.53528	-947.38037	-812.44153	1640.94385	-1089.45776	-937.00623	1606.14954	-960.81952	-943.56848	1592.72546	-1032.62415	-940.13922	1444.64185	-1020.49707	-984.68848	1119.24011	-1034.51794	-831.65302	1364.86768	-1042.47900	-796.34576	1188.17102	-957.75604	-1016.25928	1276.45959	-1190.62244	-896.28418	1404.86609	-1267.71985	-882.87659	1208.50525	-1282.79150	-865.65698	1097.85291	-1299.94788	-766.25757	988.28937	-1250.50024	-650.72504	940.37891	-1286.59460	-691.81110	895.10223	-1282.82495	-606.38214	862.77765	-873.42871	-878.92352	1400.38611	-785.71716	-951.86737	1214.45264	-768.98071	-965.06439	1093.38660	-745.33118	-972.47607	974.15192	-764.85339	-936.88806	823.97302	-730.77850	-994.09399	838.38629	-726.80817	-976.73468	754.66364	-1136.11914	-833.08582	946.03558	-920.87091	-805.54559	961.52142	-1090.97217	-982.79980	985.10339	-925.51794	-956.41003	992.62830	-1197.97888	-958.85211	641.22321	-1191.27563	-985.49719	477.31860	-1168.62830	-1180.00647	315.75595	-1125.78162	-1304.85974	200.88432	-1074.23865	-1327.36182	222.34962	-1137.95215	-1268.15173	53.34405	-871.35498	-805.19159	633.31360	-912.84637	-775.44653	516.57562	-919.03448	-791.36127	249.55910	-971.44708	-804.57941	66.26162	-1011.77734	-849.31384	41.56519	-993.56738	-654.30029	37.24559	-1023.14642	-907.98993	1694.80139												 
2	0.010	-1077.14990	-790.54156	1660.81897	-948.44977	-799.94849	1642.58594	-1089.96301	-924.76990	1607.11023	-961.20697	-931.09442	1594.00134	-1032.45483	-927.32715	1445.82239	-1019.99670	-971.39459	1120.07861	-1034.56128	-818.79309	1366.14001	-1042.18567	-783.09137	1189.40063	-956.83960	-1003.04034	1277.37817	-1190.57202	-884.45514	1405.68848	-1267.23145	-872.67059	1208.83130	-1281.92322	-856.68738	1097.87146	-1299.71619	-758.91339	986.86310	-1251.07568	-643.56525	937.31274	-1286.70752	-685.76514	892.51440	-1283.21753	-600.76984	858.72546	-873.41309	-865.62421	1401.77332	-785.35498	-936.99866	1215.30859	-768.68933	-949.62805	1094.15125	-745.49902	-955.58502	974.74518	-765.52118	-918.11041	825.25696	-730.98297	-975.85675	838.98676	-727.65924	-957.02222	755.27435	-1135.58557	-819.69653	946.99774	-919.96039	-792.86768	961.97003	-1091.12756	-969.77832	985.90668	-925.54840	-943.61261	993.55688	-1198.84119	-939.11511	640.18823	-1193.03857	-960.99200	475.76166	-1170.83752	-1156.27148	317.95041	-1127.41309	-1284.64502	207.66692	-1075.79102	-1305.92065	230.34015	-1138.96509	-1254.66870	57.89934	-871.41541	-795.93701	633.04535	-912.86914	-767.48004	516.05884	-919.40784	-788.62451	249.27165	-971.92310	-803.81042	66.39805	-1012.04285	-848.81281	41.82976	-993.66510	-653.68488	36.65893	-1023.86389	-895.91260	1696.00366												 
3	0.020	-1077.98022	-778.48944	1661.90588	-949.13068	-787.56451	1643.99609	-1090.37366	-912.49634	1607.79089	-961.55884	-918.58112	1595.09387	-1032.29065	-914.42578	1446.80798	-1019.51929	-958.34827	1120.89233	-1034.60217	-805.98535	1367.19031	-1041.98438	-769.96460	1190.40271	-955.86609	-989.91473	1278.28345	-1190.66260	-872.41064	1406.19836	-1266.87610	-862.62366	1208.94910	-1281.22046	-847.74219	1097.61218	-1299.41772	-751.91547	984.87164	-1251.74426	-636.79419	933.57898	-1286.79163	-680.24445	889.33435	-1284.03699	-595.88995	854.03546	-873.32739	-852.26892	1403.00549	-784.70459	-921.89209	1215.97180	-768.35675	-933.91827	1094.68555	-745.54602	-938.43250	975.15802	-766.59369	-899.16278	826.28558	-731.58380	-956.78802	839.16309	-728.42065	-936.88263	755.78882	-1135.33923	-807.02997	948.00397	-919.26337	-780.53375	962.08398	-1091.34753	-957.11786	986.43604	-925.85272	-930.95636	994.22388	-1199.44714	-919.53418	638.98297	-1194.43835	-936.14758	474.33145	-1172.92480	-1131.83960	319.57355	-1128.70496	-1263.30750	213.63170	-1077.13965	-1284.32690	236.46399	-1140.62683	-1235.40625	63.32627	-871.12744	-786.81104	632.85815	-912.73755	-759.94354	515.58014	-919.46185	-786.28796	249.01524	-972.44330	-803.23322	66.35512	-1012.17822	-848.64526	42.11177	-993.65540	-653.38544	36.24622	-1024.59644	-883.73157	1697.01379												 
4	0.030	-1078.95508	-766.46967	1662.88367	-949.78662	-775.04053	1645.33313	-1090.69836	-900.14844	1608.25806	-961.89832	-905.88190	1595.94897	-1032.10681	-901.54871	1447.63818	-1019.15741	-945.53503	1121.64575	-1034.63623	-793.06769	1368.04150	-1041.89709	-757.17078	1191.07324	-954.89233	-976.75623	1279.05066	-1190.74805	-860.09497	1406.53735	-1266.35266	-852.45306	1208.71802	-1280.38562	-838.91290	1097.15002	-1299.16284	-745.25494	982.42993	-1252.55945	-630.48169	929.27313	-1286.90637	-675.34576	885.57111	-1284.97668	-591.67615	848.63141	-873.28455	-838.83057	1403.97900	-784.03931	-906.63983	1216.37073	-767.99524	-917.91693	1095.04236	-745.62085	-920.89478	975.39508	-767.42810	-879.95630	827.06165	-731.88525	-937.56799	839.04443	-729.23010	-916.08209	756.07220	-1135.10059	-794.28687	948.83374	-919.16675	-767.82635	962.59747	-1091.72375	-944.72876	986.75696	-926.01788	-918.99683	994.92780	-1199.91101	-900.02283	637.78943	-1195.52930	-911.06122	473.15359	-1174.62537	-1106.94922	320.74344	-1130.01270	-1240.48547	217.91629	-1078.92432	-1262.83813	240.49063	-1141.92517	-1210.39392	68.12540	-871.62756	-778.15472	632.86145	-912.62726	-752.73749	514.94904	-919.56000	-783.90649	248.86266	-972.69531	-802.83856	66.37528	-1012.34937	-848.52466	42.25794	-993.60248	-653.18188	35.92384	-1025.30469	-871.54083	1697.78735												 
